<svg width="41" height="41" viewBox="0 0 41 41" fill="none" xmlns="http://www.w3.org/2000/svg">
<path fill-rule="evenodd" clip-rule="evenodd" d="M37.3599 18.9669C37.2474 17.7145 35.9453 17.0259 34.6937 17.1471C34.3751 17.178 34.052 17.1938 33.7252 17.1938C28.2469 17.1938 23.8059 12.7528 23.8059 7.27447C23.8059 6.94769 23.8217 6.6246 23.8526 6.30592C23.9739 5.05436 23.2852 3.75225 22.0328 3.63981C21.5277 3.59446 21.0162 3.57129 20.4993 3.57129C11.1497 3.57129 3.57031 11.1507 3.57031 20.5003C3.57031 29.85 11.1497 37.4294 20.4993 37.4294C29.849 37.4294 37.4284 29.85 37.4284 20.5003C37.4284 19.9834 37.4052 19.472 37.3599 18.9669Z" fill="#62929E"/>
<path d="M32.9845 1.00635C33.2449 0.327131 34.2059 0.327131 34.4663 1.00635L35.8717 4.67111C35.9523 4.88127 36.1183 5.04732 36.3285 5.12791L39.9933 6.53328C40.6725 6.79375 40.6725 7.75469 39.9933 8.01515L36.3285 9.42052C36.1183 9.50112 35.9523 9.66716 35.8717 9.87732L34.4663 13.5421C34.2059 14.2213 33.2449 14.2213 32.9845 13.5421L31.5791 9.87732C31.4985 9.66716 31.3324 9.50112 31.1223 9.42052L27.4575 8.01515C26.7783 7.75469 26.7783 6.79375 27.4575 6.53328L31.1223 5.12791C31.3324 5.04732 31.4985 4.88127 31.5791 4.67111L32.9845 1.00635Z" fill="#62929E"/>
</svg>
