<svg width="21" height="24" viewBox="0 0 21 24" fill="none" xmlns="http://www.w3.org/2000/svg">
<path d="M19.7963 9.5368C20.2466 9.38687 20.7283 9.69632 20.7384 10.1708C20.7561 10.9994 20.7561 11.9199 20.7561 12.9419V13.052C20.7561 15.2811 20.7561 17.0275 20.5727 18.3906C20.3854 19.7847 19.9935 20.8852 19.1304 21.7493C18.2664 22.6133 17.1658 23.0043 15.7708 23.1916C14.4086 23.375 12.6622 23.375 10.4331 23.375H10.323C8.09392 23.375 6.34751 23.375 4.98437 23.1916C3.59033 23.0043 2.48977 22.6123 1.62574 21.7493C0.761701 20.8852 0.370714 19.7847 0.183426 18.3897C4.47035e-08 17.0275 0 15.2811 0 13.052V12.9419C0 10.7128 4.47035e-08 8.96638 0.183426 7.60324C0.370714 6.2092 0.762667 5.10864 1.62574 4.24461C2.48977 3.38057 3.59033 2.98959 4.98533 2.8023C5.90537 2.67841 7.00069 2.6382 8.30163 2.62514C8.81182 2.62003 9.08213 3.29593 8.84201 3.74611C8.73493 3.94687 8.54089 4.07116 8.31337 4.07344C7.04008 4.08621 6.02057 4.12417 5.17841 4.23688C3.94366 4.40293 3.19934 4.71958 2.64906 5.2689C2.09975 5.81918 1.78406 6.56254 1.61801 7.79728C1.49613 8.70511 1.46207 9.81788 1.45212 11.2331C1.45034 11.4861 1.74818 11.6219 1.93853 11.4552C2.50074 10.9633 3.22889 10.7036 3.97546 10.7285C4.72204 10.7534 5.43124 11.0611 5.95942 11.5894L10.101 15.7309C10.3019 15.9315 10.5671 16.0549 10.85 16.0792C11.1329 16.1036 11.4153 16.0275 11.6476 15.8642L11.9353 15.6614C12.6058 15.1902 13.4164 14.9604 14.2345 15.0097C15.0526 15.059 15.8297 15.3844 16.4389 15.9327L19.0067 18.2441C19.0537 18.2865 19.129 18.2593 19.1381 18.1966C19.3061 16.9416 19.308 15.2927 19.308 12.9969C19.308 11.9447 19.3076 11.0283 19.291 10.2235C19.2846 9.91306 19.5018 9.63486 19.7963 9.5368Z" fill="#517D89"/>
<path d="M20.0159 5.0927L18.6753 4.69233C17.5159 4.36476 16.6463 3.45485 16.3202 2.32655L15.9217 0.979868C15.7767 0.506711 15.0159 0.506711 14.8709 0.979868L14.4724 2.32655C14.1463 3.49124 13.2405 4.36476 12.1173 4.69233L10.7767 5.0927C10.5594 5.16549 10.3782 5.38387 10.3782 5.60225C10.3782 5.82063 10.5231 6.03901 10.7767 6.11181L12.1173 6.51217C13.2767 6.83974 14.1463 7.74966 14.4724 8.87796L14.8709 10.2246C14.9434 10.443 15.1608 10.625 15.3782 10.625C15.5956 10.625 15.813 10.4794 15.8854 10.2246L16.284 8.87796C16.6101 7.71326 17.5159 6.83974 18.6391 6.51217L19.9796 6.11181C20.197 6.03901 20.3782 5.82063 20.3782 5.60225C20.3782 5.38387 20.2695 5.16549 20.0159 5.0927ZM15.4144 8.25921C14.9434 7.05812 14.0014 6.11181 12.8057 5.63865C14.0014 5.16549 14.9434 4.21918 15.4144 3.01808C15.8854 4.21918 16.8275 5.16549 18.0231 5.63865C16.8275 6.11181 15.8854 7.05812 15.4144 8.25921Z" fill="#517D89"/>
<path d="M15.4144 8.25921C14.9434 7.05812 14.0014 6.11181 12.8057 5.63865C14.0014 5.16549 14.9434 4.21918 15.4144 3.01808C15.8854 4.21918 16.8275 5.16549 18.0231 5.63865C16.8275 6.11181 15.8854 7.05812 15.4144 8.25921Z" fill="#517D89"/>
</svg>
