<svg width="24" height="24" viewBox="0 0 24 24" fill="none" xmlns="http://www.w3.org/2000/svg">
<mask id="mask0_558_588" style="mask-type:alpha" maskUnits="userSpaceOnUse" x="-1" y="0" width="25" height="24">
<rect x="-0.00500488" width="24" height="24" fill="#D9D9D9"/>
</mask>
<g mask="url(#mask0_558_588)">
<path d="M9.895 19C8.27833 19 6.89083 18.475 5.7325 17.425C4.57416 16.375 3.995 15.0667 3.995 13.5C3.995 11.9333 4.57416 10.625 5.7325 9.575C6.89083 8.525 8.27833 8 9.895 8H16.195L13.595 5.4L14.995 4L19.995 9L14.995 14L13.595 12.6L16.195 10H9.895C8.845 10 7.9325 10.3333 7.1575 11C6.3825 11.6667 5.995 12.5 5.995 13.5C5.995 14.5 6.3825 15.3333 7.1575 16C7.9325 16.6667 8.845 17 9.895 17H16.995V19H9.895Z" fill="black"/>
</g>
</svg>
