<svg width="24" height="24" viewBox="0 0 24 24" fill="none" xmlns="http://www.w3.org/2000/svg">
<mask id="mask0_558_585" style="mask-type:alpha" maskUnits="userSpaceOnUse" x="-1" y="0" width="25" height="24">
<rect x="-0.00500488" width="24" height="24" fill="#D9D9D9"/>
</mask>
<g mask="url(#mask0_558_585)">
<path d="M6.995 19V17H14.095C15.145 17 16.0575 16.6667 16.8325 16C17.6075 15.3333 17.995 14.5 17.995 13.5C17.995 12.5 17.6075 11.6667 16.8325 11C16.0575 10.3333 15.145 10 14.095 10H7.795L10.395 12.6L8.995 14L3.995 9L8.995 4L10.395 5.4L7.795 8H14.095C15.7117 8 17.0992 8.525 18.2575 9.575C19.4158 10.625 19.995 11.9333 19.995 13.5C19.995 15.0667 19.4158 16.375 18.2575 17.425C17.0992 18.475 15.7117 19 14.095 19H6.995Z" fill="black"/>
</g>
</svg>
